<svg width="40" height="40" viewBox="0 0 67 66" fill="none" xmlns="http://www.w3.org/2000/svg" style="margin-right: 10px;"><rect x="0.834961" y="0.716309" width="65.8655" height="64.6799" rx="15.2466" fill="#EFD8D8"></rect><path d="M50.3215 30.0638C50.3215 21.13 42.9807 13.8918 33.9201 13.8918C24.8595 13.8918 17.5187 21.13 17.5187 30.0638C17.5187 35.5177 21.4025 41.4407 24.3561 42.8528L15.7766 42.8528V48.3279H52.0636V42.8528L44.0826 42.8528C46.719 40.921 50.3215 35.6554 50.3215 30.0638ZM33.9201 20.6049C39.5337 20.6049 44.0826 25.0901 44.0826 30.6252C44.0826 36.1602 39.5337 40.921 33.9201 40.921C28.3066 40.921 23.7577 36.1602 23.7577 30.6252C23.7577 25.0901 28.3066 20.6049 33.9201 20.6049Z" fill="#4F32FF"></path></svg>